<svg viewBox="0 0 64 64" xmlns="http://www.w3.org/2000/svg">
  <ellipse cx="32" cy="62" rx="22" ry="2" fill="rgba(0,0,0,.12)"/>
  <rect x="0" y="22" width="28" height="22" rx="2" fill="#14B8A6"/>
  <line x1="0" y1="30" x2="28" y2="30" stroke="#0D9488" stroke-width="1.5" opacity=".6"/>
  <line x1="0" y1="37" x2="28" y2="37" stroke="#0D9488" stroke-width="1.5" opacity=".6"/>
  <rect x="0" y="28" width="2" height="6" rx="1" fill="#FCA5A5"/>
  <rect x="26" y="14" width="28" height="32" rx="7" fill="#0D9488"/>
  <rect x="47" y="7" width="4" height="9" rx="2" fill="#0F766E"/>
  <circle cx="49" cy="5" r="3" fill="#CBD5E1" opacity=".8"/>
  <circle cx="49" cy="1" r="2" fill="#E2E8F0" opacity=".8"/>
  <rect x="28" y="18" width="18" height="16" rx="4" fill="#BAE6FD" opacity=".92"/>
  <path d="M30 25 Q33 22 36 25" stroke="#134E4A" stroke-width="2" fill="none" stroke-linecap="round"/>
  <path d="M38 25 Q41 22 44 25" stroke="#134E4A" stroke-width="2" fill="none" stroke-linecap="round"/>
  <path d="M30 30 Q37 34.5 44 30" stroke="#134E4A" stroke-width="1.6" fill="none" stroke-linecap="round"/>
  <ellipse cx="56" cy="32" rx="4" ry="3.5" fill="#FEF08A"/>
  <ellipse cx="56" cy="32" rx="5.5" ry="5" fill="#FEF9C3" opacity=".35"/>
  <circle cx="13" cy="51" r="9" fill="#1E293B"/>
  <circle cx="13" cy="51" r="3.5" fill="#374151"/>
  <circle cx="13" cy="51" r="1.5" fill="#6B7280"/>
  <circle cx="46" cy="51" r="9" fill="#1E293B"/>
  <circle cx="46" cy="51" r="3.5" fill="#374151"/>
  <circle cx="46" cy="51" r="1.5" fill="#6B7280"/>
</svg>
